<svg xmlns="http://www.w3.org/2000/svg" viewBox="0 0 24 24" fill="none" stroke="#424242" stroke-width="1.85" stroke-linecap="round" stroke-linejoin="round">
  <defs>
    <clipPath id="leafClip">
      <path d="M20.6 5.5c-4.6.1-8.4 1.7-10.9 4.2-3.4 3.4-3.7 7.6-1.8 9.5 1.9 1.9 6.1 1.6 9.5-1.8 2.5-2.5 4.1-6.3 4.2-10.9 0-.5-.5-1-1-1z"/>
    </clipPath>
  </defs>

  <g clip-path="url(#leafClip)" stroke="none">
    <rect x="4" y="4" width="18" height="18" fill="#A7F3D0"/>
    <path d="M6 20L22 4V20Z" fill="#34D399"/>
    <path d="M4 12L14 4L22 10L12 22Z" fill="#10B981" opacity="0.9"/>
  </g>

  <path d="M20.6 5.5c-4.6.1-8.4 1.7-10.9 4.2-3.4 3.4-3.7 7.6-1.8 9.5 1.9 1.9 6.1 1.6 9.5-1.8 2.5-2.5 4.1-6.3 4.2-10.9 0-.5-.5-1-1-1z"/>
  <path d="M7.1 19.2c2.5-2.5 5-5 9.2-9.2"/>
  <path d="M10.1 14.9c1.4.2 2.6.8 3.5 1.8"/>
</svg>
